<?xml version="1.0" encoding="UTF-8" standalone="no"?>
<!-- Created with Inkscape (http://www.inkscape.org/) -->

<svg
   xmlns:dc="http://purl.org/dc/elements/1.1/"
   xmlns:cc="http://creativecommons.org/ns#"
   xmlns:rdf="http://www.w3.org/1999/02/22-rdf-syntax-ns#"
   xmlns:svg="http://www.w3.org/2000/svg"
   xmlns="http://www.w3.org/2000/svg"
   xmlns:xlink="http://www.w3.org/1999/xlink"
   xmlns:sodipodi="http://sodipodi.sourceforge.net/DTD/sodipodi-0.dtd"
   xmlns:inkscape="http://www.inkscape.org/namespaces/inkscape"
   width="210mm"
   height="210mm"
   viewBox="0 0 210 210"
   version="1.1"
   id="svg8"
   inkscape:version="0.92.3 (2405546, 2018-03-11)"
   sodipodi:docname="logo.svg"
   inkscape:export-filename="C:\Users\Michael\Documents\Cuttle System\logo.png"
   inkscape:export-xdpi="96"
   inkscape:export-ydpi="96">
  <defs
     id="defs2">
    <linearGradient
       inkscape:collect="always"
       id="linearGradient869">
      <stop
         style="stop-color:#d6fff9;stop-opacity:1"
         offset="0"
         id="stop865" />
      <stop
         style="stop-color:#79afeb;stop-opacity:1"
         offset="1"
         id="stop867" />
    </linearGradient>
    <linearGradient
       inkscape:collect="always"
       xlink:href="#linearGradient869"
       id="linearGradient871-2"
       x1="-85.131882"
       y1="159.03419"
       x2="-85.876686"
       y2="164.8037"
       gradientUnits="userSpaceOnUse"
       gradientTransform="matrix(0.93783863,0,0,1.33598,34.099024,-45.176501)" />
  </defs>
  <sodipodi:namedview
     id="base"
     pagecolor="#ffffff"
     bordercolor="#666666"
     borderopacity="1.0"
     inkscape:pageopacity="0.0"
     inkscape:pageshadow="2"
     inkscape:zoom="0.5"
     inkscape:cx="-435.6298"
     inkscape:cy="442.64473"
     inkscape:document-units="mm"
     inkscape:current-layer="layer1"
     showgrid="false"
     inkscape:window-width="1920"
     inkscape:window-height="1017"
     inkscape:window-x="-8"
     inkscape:window-y="-8"
     inkscape:window-maximized="1" />
  <metadata
     id="metadata5">
    <rdf:RDF>
      <cc:Work
         rdf:about="">
        <dc:format>image/svg+xml</dc:format>
        <dc:type
           rdf:resource="http://purl.org/dc/dcmitype/StillImage" />
        <dc:title />
      </cc:Work>
    </rdf:RDF>
  </metadata>
  <g
     inkscape:label="Layer 1"
     inkscape:groupmode="layer"
     id="layer1"
     transform="translate(0,-87)">
    <g
       id="g1306"
       transform="matrix(11.820536,0,0,13.30962,-1064.6913,-1817.0871)"
       inkscape:export-xdpi="96"
       inkscape:export-ydpi="96">
      <ellipse
         rx="8.8828459"
         ry="7.8890305"
         style="fill:#0b0916;fill-opacity:1;stroke:none;stroke-width:0.42141548;stroke-linecap:round;stroke-linejoin:round;stroke-miterlimit:4;stroke-dasharray:none;stroke-opacity:1;paint-order:stroke fill markers"
         id="ellipse1238-2"
         cx="98.95417"
         cy="150.95" />
      <ellipse
         ry="7.4881263"
         rx="8.4314375"
         cy="150.95"
         cx="98.95417"
         id="path1182-5-8"
         style="fill:#e0d44e;fill-opacity:1;stroke:none;stroke-width:0.40000001;stroke-linecap:round;stroke-linejoin:round;stroke-miterlimit:4;stroke-dasharray:none;stroke-opacity:1;paint-order:stroke fill markers" />
      <path
         sodipodi:nodetypes="ccczsascc"
         inkscape:connector-curvature="0"
         id="path1209-9-4"
         d="m 91.238058,148.20035 0.79509,0.31498 c 1.80885,-0.51189 2.40965,-4.11194 5.49961,-0.89486 0.38491,0.30923 1.25462,-3.61542 4.474562,-2.81263 3.21994,0.80279 4.93763,11.37353 -0.3816,13.10307 -0.71674,0.23305 -1.49095,0.34976 -2.217272,0.1979 -2.00915,-0.42008 -3.65897,-2.72139 -5.40028,-2.95894 -0.95065,-0.12969 -3.12974,-5.8629 -2.77015,-6.94953 z"
         style="fill:#6d919d;fill-opacity:1;stroke:none;stroke-width:0.26337406px;stroke-linecap:butt;stroke-linejoin:miter;stroke-opacity:1" />
      <path
         style="fill:#97d4e1;fill-opacity:1;stroke:none;stroke-width:0.26337445px;stroke-linecap:butt;stroke-linejoin:miter;stroke-opacity:1"
         d="m 91.238018,148.20035 0.73824,0.77644 c 1.80886,-0.51189 2.62103,-4.00128 5.711,-0.7842 0.38491,0.30923 1.1001,-4.18754 4.320052,-3.38475 3.21995,0.80279 4.9745,10.38474 0.0778,12.63484 -1.09923,0.50511 -1.86381,0.38224 -2.766972,0.18528 -1.82634,-0.39829 -3.23169,-2.58328 -4.93125,-2.67026 -2.90085,-0.14845 -3.55007,-5.16048 -3.14897,-6.75735 z"
         id="path1207-7-5"
         inkscape:connector-curvature="0"
         sodipodi:nodetypes="ccczsascc" />
      <path
         sodipodi:nodetypes="ccczsascc"
         inkscape:connector-curvature="0"
         id="path1205-7-1"
         d="m 91.238108,148.20035 0.66152,0.98315 c 1.80902,-0.51189 2.81618,-3.35754 5.90642,-0.14046 0.30457,0.47499 1.37729,-4.66136 4.243652,-4.19976 2.86635,0.4616 5.05667,9.9545 0.25704,12.25587 -1.3026,0.62458 -1.81649,0.38094 -2.696302,0.18703 -1.70328,-0.3754 -3.19745,-2.39012 -4.58408,-2.52291 -2.97521,-0.28492 -4.29712,-4.96851 -3.7883,-6.56288 z"
         style="fill:#fdfffa;fill-opacity:1;stroke:none;stroke-width:0.26338607px;stroke-linecap:butt;stroke-linejoin:miter;stroke-opacity:1" />
      <path
         sodipodi:nodetypes="saaccccaccs"
         id="path1184-6-8"
         d="m 100.85204,145.63348 c -1.612302,0.69233 -1.137892,4.10451 -2.864632,4.41627 -1.01525,0.1833 -1.49798,-1.54657 -2.48595,-1.84367 -1.53289,-0.46095 -4.18936,2.87662 -4.79512,0.25875 -0.32659,0.79789 -0.4952,1.63818 -0.49864,2.48512 0.004,2.04572 0.96962,4.00103 2.6731,5.41156 0.1169,0.03 0.18968,0.031 0.2042,-0.003 0.22446,-0.52677 1.47525,-1.57695 2.46044,-1.65365 1.48596,-0.11568 2.65665,1.36956 4.05237,1.88981 7.287342,1.8902 7.386512,-11.18815 2.279262,-11.15177 0,0 -0.52169,-0.0256 -1.02503,0.19058 z"
         style="fill:#0b0916;fill-opacity:1;stroke:none;stroke-width:0.26735616px;stroke-linecap:butt;stroke-linejoin:miter;stroke-opacity:1"
         inkscape:connector-curvature="0" />
    </g>
  </g>
</svg>
